<mxfile host="app.diagrams.net" modified="2023-11-23T07:06:16.477Z" agent="Mozilla/5.0 (Windows NT 10.0; Win64; x64) AppleWebKit/537.36 (KHTML, like Gecko) Chrome/119.0.0.0 Safari/537.36" etag="kpgQ3LvqqBSFZB3qQoEy" version="22.1.3" type="device">
  <diagram name="Halaman-1" id="dFUnw_OlwblLvL9WgMGE">
    <mxGraphModel dx="1646" dy="429" grid="1" gridSize="10" guides="1" tooltips="1" connect="1" arrows="1" fold="1" page="1" pageScale="1" pageWidth="827" pageHeight="1169" math="0" shadow="0">
      <root>
        <mxCell id="0" />
        <mxCell id="1" parent="0" />
        <mxCell id="qRzxbKykd0eF-UdsfA9m-42" value="" style="rounded=0;whiteSpace=wrap;html=1;" parent="1" vertex="1">
          <mxGeometry x="-27" y="7" width="750" height="660" as="geometry" />
        </mxCell>
        <mxCell id="qRzxbKykd0eF-UdsfA9m-1" value="RFID" style="rounded=0;whiteSpace=wrap;html=1;" parent="1" vertex="1">
          <mxGeometry x="140" y="100" width="120" height="200" as="geometry" />
        </mxCell>
        <mxCell id="qRzxbKykd0eF-UdsfA9m-2" value="LILYGO SIM700G" style="rounded=0;whiteSpace=wrap;html=1;" parent="1" vertex="1">
          <mxGeometry x="470" y="100" width="120" height="480" as="geometry" />
        </mxCell>
        <mxCell id="qRzxbKykd0eF-UdsfA9m-3" value="" style="endArrow=none;html=1;rounded=0;" parent="1" edge="1">
          <mxGeometry width="50" height="50" relative="1" as="geometry">
            <mxPoint x="164" y="330" as="sourcePoint" />
            <mxPoint x="164" y="300" as="targetPoint" />
          </mxGeometry>
        </mxCell>
        <mxCell id="qRzxbKykd0eF-UdsfA9m-4" value="" style="endArrow=none;html=1;rounded=0;" parent="1" edge="1">
          <mxGeometry width="50" height="50" relative="1" as="geometry">
            <mxPoint x="174" y="330" as="sourcePoint" />
            <mxPoint x="174" y="300" as="targetPoint" />
          </mxGeometry>
        </mxCell>
        <mxCell id="qRzxbKykd0eF-UdsfA9m-5" value="" style="endArrow=none;html=1;rounded=0;" parent="1" edge="1">
          <mxGeometry width="50" height="50" relative="1" as="geometry">
            <mxPoint x="184" y="330" as="sourcePoint" />
            <mxPoint x="184" y="300" as="targetPoint" />
          </mxGeometry>
        </mxCell>
        <mxCell id="qRzxbKykd0eF-UdsfA9m-6" value="" style="endArrow=none;html=1;rounded=0;" parent="1" edge="1">
          <mxGeometry width="50" height="50" relative="1" as="geometry">
            <mxPoint x="194" y="330" as="sourcePoint" />
            <mxPoint x="194" y="300" as="targetPoint" />
          </mxGeometry>
        </mxCell>
        <mxCell id="qRzxbKykd0eF-UdsfA9m-7" value="" style="endArrow=none;html=1;rounded=0;" parent="1" edge="1">
          <mxGeometry width="50" height="50" relative="1" as="geometry">
            <mxPoint x="204" y="330" as="sourcePoint" />
            <mxPoint x="204" y="300" as="targetPoint" />
          </mxGeometry>
        </mxCell>
        <mxCell id="qRzxbKykd0eF-UdsfA9m-8" value="" style="endArrow=none;html=1;rounded=0;" parent="1" edge="1">
          <mxGeometry width="50" height="50" relative="1" as="geometry">
            <mxPoint x="213.83" y="330" as="sourcePoint" />
            <mxPoint x="213.83" y="300" as="targetPoint" />
          </mxGeometry>
        </mxCell>
        <mxCell id="qRzxbKykd0eF-UdsfA9m-9" value="" style="endArrow=none;html=1;rounded=0;" parent="1" edge="1">
          <mxGeometry width="50" height="50" relative="1" as="geometry">
            <mxPoint x="224" y="330" as="sourcePoint" />
            <mxPoint x="224" y="300" as="targetPoint" />
          </mxGeometry>
        </mxCell>
        <mxCell id="qRzxbKykd0eF-UdsfA9m-10" value="" style="endArrow=none;html=1;rounded=0;" parent="1" edge="1">
          <mxGeometry width="50" height="50" relative="1" as="geometry">
            <mxPoint x="234" y="330" as="sourcePoint" />
            <mxPoint x="234" y="300" as="targetPoint" />
          </mxGeometry>
        </mxCell>
        <mxCell id="qRzxbKykd0eF-UdsfA9m-11" value="&lt;font style=&quot;font-size: 4px;&quot;&gt;3.3V&lt;/font&gt;" style="text;html=1;strokeColor=none;fillColor=none;align=center;verticalAlign=middle;whiteSpace=wrap;rounded=0;strokeWidth=0;" parent="1" vertex="1">
          <mxGeometry x="226" y="289" width="20" as="geometry" />
        </mxCell>
        <mxCell id="qRzxbKykd0eF-UdsfA9m-12" value="&lt;font style=&quot;font-size: 4px;&quot;&gt;RST&lt;/font&gt;" style="text;html=1;strokeColor=none;fillColor=none;align=center;verticalAlign=middle;whiteSpace=wrap;rounded=0;strokeWidth=0;" parent="1" vertex="1">
          <mxGeometry x="216" y="289" width="20" as="geometry" />
        </mxCell>
        <mxCell id="qRzxbKykd0eF-UdsfA9m-14" value="&lt;font style=&quot;font-size: 4px;&quot;&gt;GND&lt;/font&gt;" style="text;html=1;strokeColor=none;fillColor=none;align=center;verticalAlign=middle;whiteSpace=wrap;rounded=0;strokeWidth=0;" parent="1" vertex="1">
          <mxGeometry x="205" y="289" width="20" as="geometry" />
        </mxCell>
        <mxCell id="qRzxbKykd0eF-UdsfA9m-15" value="&lt;font style=&quot;font-size: 4px;&quot;&gt;IRQ&lt;br&gt;&lt;/font&gt;" style="text;html=1;strokeColor=none;fillColor=none;align=center;verticalAlign=middle;whiteSpace=wrap;rounded=0;strokeWidth=0;" parent="1" vertex="1">
          <mxGeometry x="196" y="289" width="20" as="geometry" />
        </mxCell>
        <mxCell id="qRzxbKykd0eF-UdsfA9m-16" value="&lt;font style=&quot;font-size: 4px;&quot;&gt;MISO&lt;br&gt;&lt;/font&gt;" style="text;html=1;strokeColor=none;fillColor=none;align=center;verticalAlign=middle;whiteSpace=wrap;rounded=0;strokeWidth=0;" parent="1" vertex="1">
          <mxGeometry x="186" y="289" width="20" as="geometry" />
        </mxCell>
        <mxCell id="qRzxbKykd0eF-UdsfA9m-17" value="&lt;font style=&quot;font-size: 4px;&quot;&gt;MOSI&lt;br&gt;&lt;/font&gt;" style="text;html=1;strokeColor=none;fillColor=none;align=center;verticalAlign=middle;whiteSpace=wrap;rounded=0;strokeWidth=0;" parent="1" vertex="1">
          <mxGeometry x="175" y="289" width="20" as="geometry" />
        </mxCell>
        <mxCell id="qRzxbKykd0eF-UdsfA9m-18" value="&lt;font style=&quot;font-size: 4px;&quot;&gt;SCK&lt;br&gt;&lt;/font&gt;" style="text;html=1;strokeColor=none;fillColor=none;align=center;verticalAlign=middle;whiteSpace=wrap;rounded=0;strokeWidth=0;" parent="1" vertex="1">
          <mxGeometry x="164" y="289" width="20" as="geometry" />
        </mxCell>
        <mxCell id="qRzxbKykd0eF-UdsfA9m-19" value="&lt;font style=&quot;font-size: 4px;&quot;&gt;SDA&lt;br&gt;&lt;/font&gt;" style="text;html=1;strokeColor=none;fillColor=none;align=center;verticalAlign=middle;whiteSpace=wrap;rounded=0;strokeWidth=0;" parent="1" vertex="1">
          <mxGeometry x="154" y="289" width="20" as="geometry" />
        </mxCell>
        <mxCell id="qRzxbKykd0eF-UdsfA9m-20" value="" style="endArrow=none;html=1;rounded=0;" parent="1" edge="1">
          <mxGeometry width="50" height="50" relative="1" as="geometry">
            <mxPoint x="590" y="110" as="sourcePoint" />
            <mxPoint x="600" y="110" as="targetPoint" />
          </mxGeometry>
        </mxCell>
        <mxCell id="qRzxbKykd0eF-UdsfA9m-21" value="" style="endArrow=none;html=1;rounded=0;" parent="1" edge="1">
          <mxGeometry width="50" height="50" relative="1" as="geometry">
            <mxPoint x="590" y="116" as="sourcePoint" />
            <mxPoint x="600" y="116" as="targetPoint" />
          </mxGeometry>
        </mxCell>
        <mxCell id="qRzxbKykd0eF-UdsfA9m-22" value="" style="endArrow=none;html=1;rounded=0;" parent="1" edge="1">
          <mxGeometry width="50" height="50" relative="1" as="geometry">
            <mxPoint x="590" y="150" as="sourcePoint" />
            <mxPoint x="600" y="150" as="targetPoint" />
          </mxGeometry>
        </mxCell>
        <mxCell id="qRzxbKykd0eF-UdsfA9m-23" value="" style="endArrow=none;html=1;rounded=0;" parent="1" edge="1">
          <mxGeometry width="50" height="50" relative="1" as="geometry">
            <mxPoint x="590" y="156" as="sourcePoint" />
            <mxPoint x="600" y="156" as="targetPoint" />
            <Array as="points">
              <mxPoint x="590" y="156" />
            </Array>
          </mxGeometry>
        </mxCell>
        <mxCell id="qRzxbKykd0eF-UdsfA9m-24" value="" style="endArrow=none;html=1;rounded=0;" parent="1" edge="1">
          <mxGeometry width="50" height="50" relative="1" as="geometry">
            <mxPoint x="590" y="162" as="sourcePoint" />
            <mxPoint x="600" y="162" as="targetPoint" />
            <Array as="points">
              <mxPoint x="590" y="162" />
            </Array>
          </mxGeometry>
        </mxCell>
        <mxCell id="qRzxbKykd0eF-UdsfA9m-25" value="" style="endArrow=none;html=1;rounded=0;" parent="1" edge="1">
          <mxGeometry width="50" height="50" relative="1" as="geometry">
            <mxPoint x="590" y="168" as="sourcePoint" />
            <mxPoint x="600" y="168" as="targetPoint" />
            <Array as="points">
              <mxPoint x="590" y="168" />
            </Array>
          </mxGeometry>
        </mxCell>
        <mxCell id="qRzxbKykd0eF-UdsfA9m-27" value="&lt;font style=&quot;font-size: 4px;&quot;&gt;3.3V&lt;/font&gt;" style="text;html=1;strokeColor=none;fillColor=none;align=center;verticalAlign=middle;whiteSpace=wrap;rounded=0;strokeWidth=0;" parent="1" vertex="1">
          <mxGeometry x="574" y="107" width="20" as="geometry" />
        </mxCell>
        <mxCell id="qRzxbKykd0eF-UdsfA9m-29" value="&lt;font style=&quot;font-size: 4px;&quot;&gt;GND&lt;/font&gt;" style="text;html=1;strokeColor=none;fillColor=none;align=center;verticalAlign=middle;whiteSpace=wrap;rounded=0;strokeWidth=0;" parent="1" vertex="1">
          <mxGeometry x="574" y="113" width="20" as="geometry" />
        </mxCell>
        <mxCell id="qRzxbKykd0eF-UdsfA9m-30" value="&lt;font style=&quot;font-size: 4px;&quot;&gt;SDA/IO 21&lt;/font&gt;" style="text;html=1;strokeColor=none;fillColor=none;align=center;verticalAlign=middle;whiteSpace=wrap;rounded=0;strokeWidth=0;" parent="1" vertex="1">
          <mxGeometry x="564" y="147" width="30" as="geometry" />
        </mxCell>
        <mxCell id="qRzxbKykd0eF-UdsfA9m-32" value="&lt;font style=&quot;font-size: 4px;&quot;&gt;MOSI/IO 23&lt;/font&gt;" style="text;html=1;strokeColor=none;fillColor=none;align=center;verticalAlign=middle;whiteSpace=wrap;rounded=0;strokeWidth=0;" parent="1" vertex="1">
          <mxGeometry x="563" y="153" width="30" as="geometry" />
        </mxCell>
        <mxCell id="qRzxbKykd0eF-UdsfA9m-34" value="&lt;font style=&quot;font-size: 4px;&quot;&gt;MISO/IO 19&lt;/font&gt;" style="text;html=1;strokeColor=none;fillColor=none;align=center;verticalAlign=middle;whiteSpace=wrap;rounded=0;strokeWidth=0;" parent="1" vertex="1">
          <mxGeometry x="563" y="159" width="30" as="geometry" />
        </mxCell>
        <mxCell id="qRzxbKykd0eF-UdsfA9m-36" value="&lt;font style=&quot;font-size: 4px;&quot;&gt;SCK/IO 18&lt;/font&gt;" style="text;html=1;strokeColor=none;fillColor=none;align=center;verticalAlign=middle;whiteSpace=wrap;rounded=0;strokeWidth=0;" parent="1" vertex="1">
          <mxGeometry x="564" y="165" width="30" as="geometry" />
        </mxCell>
        <mxCell id="qRzxbKykd0eF-UdsfA9m-37" value="" style="endArrow=none;html=1;rounded=0;" parent="1" edge="1">
          <mxGeometry width="50" height="50" relative="1" as="geometry">
            <mxPoint x="460" y="390" as="sourcePoint" />
            <mxPoint x="470" y="390" as="targetPoint" />
          </mxGeometry>
        </mxCell>
        <mxCell id="qRzxbKykd0eF-UdsfA9m-38" value="&lt;font style=&quot;font-size: 4px;&quot;&gt;RST/IO 15&lt;/font&gt;" style="text;html=1;strokeColor=none;fillColor=none;align=center;verticalAlign=middle;whiteSpace=wrap;rounded=0;strokeWidth=0;" parent="1" vertex="1">
          <mxGeometry x="461" y="387" width="41" as="geometry" />
        </mxCell>
        <mxCell id="qRzxbKykd0eF-UdsfA9m-41" value="" style="group" parent="1" vertex="1" connectable="0">
          <mxGeometry x="130" y="340" width="291" height="105" as="geometry" />
        </mxCell>
        <mxCell id="qRzxbKykd0eF-UdsfA9m-39" value="CONNECTIVITY BETWEEN RFID AND LILYGO VSPI" style="text;html=1;strokeColor=none;fillColor=none;align=center;verticalAlign=middle;whiteSpace=wrap;rounded=0;" parent="qRzxbKykd0eF-UdsfA9m-41" vertex="1">
          <mxGeometry width="280" height="30" as="geometry" />
        </mxCell>
        <mxCell id="qRzxbKykd0eF-UdsfA9m-40" value="&lt;font style=&quot;font-size: 8px;&quot;&gt;3.3V&amp;nbsp; &amp;nbsp; &amp;nbsp; =&amp;gt;&amp;nbsp; &amp;nbsp; &amp;nbsp;3.3V&lt;br&gt;RST&amp;nbsp; &amp;nbsp; &amp;nbsp; =&amp;gt;&amp;nbsp; &amp;nbsp; &amp;nbsp;RST/ IO 15&lt;br&gt;GND&amp;nbsp; &amp;nbsp; &amp;nbsp;=&amp;gt;&amp;nbsp; &amp;nbsp; &amp;nbsp;GND&lt;br&gt;IRQ&amp;nbsp; &amp;nbsp; &amp;nbsp; =&amp;gt;&amp;nbsp; &amp;nbsp; &amp;nbsp; -&lt;br&gt;MISO&amp;nbsp; &amp;nbsp;=&amp;gt;&amp;nbsp; &amp;nbsp; &amp;nbsp;MISO/IO 19&lt;br&gt;MOSI&amp;nbsp; &amp;nbsp;=&amp;gt;&amp;nbsp; &amp;nbsp; &amp;nbsp;MOSI/IO 23&lt;br&gt;SDA&amp;nbsp; &amp;nbsp; &amp;nbsp;=&amp;gt;&amp;nbsp; &amp;nbsp; &amp;nbsp;SDA/IO 21&lt;br&gt;SCK&amp;nbsp; &amp;nbsp; &amp;nbsp;=&amp;gt;&amp;nbsp; &amp;nbsp; &amp;nbsp;SCK/ IO 18&lt;br&gt;RELAY =&amp;gt;&amp;nbsp; &amp;nbsp; &amp;nbsp;IO14&lt;br&gt;&lt;/font&gt;" style="text;html=1;strokeColor=none;fillColor=none;align=left;verticalAlign=middle;whiteSpace=wrap;rounded=0;" parent="qRzxbKykd0eF-UdsfA9m-41" vertex="1">
          <mxGeometry x="11" y="75" width="280" height="30" as="geometry" />
        </mxCell>
        <mxCell id="k9FXQZ3kvD5ucstZiq_c-3" value="" style="endArrow=none;html=1;rounded=0;" edge="1" parent="1">
          <mxGeometry width="50" height="50" relative="1" as="geometry">
            <mxPoint x="460" y="397" as="sourcePoint" />
            <mxPoint x="470" y="397" as="targetPoint" />
          </mxGeometry>
        </mxCell>
        <mxCell id="k9FXQZ3kvD5ucstZiq_c-4" value="&lt;font style=&quot;font-size: 4px;&quot;&gt;RELAY/IO 14&lt;/font&gt;" style="text;html=1;strokeColor=none;fillColor=none;align=center;verticalAlign=middle;whiteSpace=wrap;rounded=0;strokeWidth=0;" vertex="1" parent="1">
          <mxGeometry x="463" y="394" width="41" as="geometry" />
        </mxCell>
      </root>
    </mxGraphModel>
  </diagram>
</mxfile>
